<svg width="117" height="30" viewBox="0 0 117 30" fill="none" xmlns="http://www.w3.org/2000/svg">
<path d="M40.3236 3.84829C40.2367 3.29637 39.9841 2.7839 39.5992 2.37882C39.2144 1.97375 38.7156 1.69522 38.1688 1.58015L31.5118 0.117206C30.798 -0.0384886 30.059 -0.039073 29.3448 0.115492C28.6307 0.270056 27.9581 0.576166 27.3725 1.01312L7.6964 15.3477L2.18483 15.1209C1.74176 15.1051 1.30496 15.2292 0.936474 15.4757C0.567984 15.7223 0.286535 16.0786 0.132105 16.4942C-0.0223258 16.9098 -0.0418869 17.3635 0.0761998 17.7908C0.194286 18.2181 0.444017 18.5974 0.789921 18.8747L6.46026 23.3316C7.14071 24.1595 7.59433 24.0007 18.8556 17.8654L19.9103 28.5483C19.9279 28.8397 20.0278 29.1202 20.1984 29.3571C20.369 29.594 20.6034 29.7776 20.8743 29.8865C21.0692 29.9635 21.2771 30.002 21.4867 29.9999C21.9085 29.987 22.3113 29.8219 22.6207 29.5349L25.3312 27.0627C25.601 26.8126 25.7839 26.4828 25.8528 26.1214L28.3364 12.626C32.3851 10.3578 36.2182 8.2258 38.9513 6.67212C39.4403 6.39707 39.8337 5.97933 40.0789 5.47473C40.3241 4.97013 40.4095 4.4027 40.3236 3.84829ZM37.8286 4.69884C34.9934 6.30922 31.0242 8.56602 26.7601 10.9022L26.2951 11.163L23.6527 25.5317L21.9857 27.0513L20.7382 14.2364L19.2299 15.0075C11.0986 19.5438 8.38818 20.8593 7.45824 21.2676L2.58175 17.4004L8.34282 17.6499L28.7561 2.83897C29.0769 2.59909 29.4448 2.42963 29.8356 2.34169C30.2265 2.25375 30.6315 2.2493 31.0242 2.32864L37.6585 3.75757C37.7607 3.7761 37.8544 3.8268 37.9258 3.90228C37.9972 3.97776 38.0426 4.07407 38.0554 4.17717C38.0788 4.27696 38.0693 4.38161 38.0284 4.47558C37.9876 4.56956 37.9175 4.64786 37.8286 4.69884Z" fill="#0971B3"/>
<path d="M7.69659 8.81555L11.7339 9.94961L13.5937 8.60007L9.05747 7.28455L11.0988 6.03708L17.3022 5.85563L19.9105 3.96173L11.0988 4.23391C10.821 4.21888 10.5449 4.28593 10.3049 4.4267L7.32235 6.16182C7.07577 6.3079 6.87794 6.5237 6.75381 6.78203C6.62968 7.04036 6.5848 7.32965 6.62482 7.61344C6.66484 7.89724 6.78798 8.16284 6.97871 8.37676C7.16944 8.59068 7.41923 8.74336 7.69659 8.81555Z" fill="#0971B3"/>
<path d="M45.2588 12.6973C44.8167 12.6973 44.4704 12.8385 44.2197 13.1211C43.9691 13.3991 43.8255 13.7956 43.7891 14.3105H46.7148C46.7057 13.7956 46.5713 13.3991 46.3115 13.1211C46.0518 12.8385 45.7008 12.6973 45.2588 12.6973ZM45.5527 19.1367C44.3223 19.1367 43.3607 18.7972 42.668 18.1182C41.9753 17.4391 41.6289 16.4775 41.6289 15.2334C41.6289 13.9528 41.9479 12.9639 42.5859 12.2666C43.2285 11.5648 44.1149 11.2139 45.2451 11.2139C46.3252 11.2139 47.166 11.5215 47.7676 12.1367C48.3691 12.752 48.6699 13.6019 48.6699 14.6865V15.6982H43.7412C43.764 16.2907 43.9395 16.7533 44.2676 17.0859C44.5957 17.4186 45.056 17.585 45.6484 17.585C46.1087 17.585 46.5439 17.5371 46.9541 17.4414C47.3643 17.3457 47.7926 17.193 48.2393 16.9834V18.5967C47.8747 18.779 47.485 18.9134 47.0703 19C46.6556 19.0911 46.1497 19.1367 45.5527 19.1367ZM55.2188 19L54.8154 17.9609H54.7607C54.4098 18.403 54.0475 18.7106 53.6738 18.8838C53.3047 19.0524 52.8216 19.1367 52.2246 19.1367C51.4909 19.1367 50.9121 18.9271 50.4883 18.5078C50.069 18.0885 49.8594 17.4915 49.8594 16.7168C49.8594 15.9056 50.1419 15.3086 50.707 14.9258C51.2767 14.5384 52.1335 14.3242 53.2773 14.2832L54.6035 14.2422V13.9072C54.6035 13.1325 54.207 12.7451 53.4141 12.7451C52.8034 12.7451 52.0856 12.9297 51.2607 13.2988L50.5703 11.8906C51.4499 11.4303 52.4251 11.2002 53.4961 11.2002C54.5215 11.2002 55.3076 11.4235 55.8545 11.8701C56.4014 12.3167 56.6748 12.9958 56.6748 13.9072V19H55.2188ZM54.6035 15.459L53.7969 15.4863C53.1908 15.5046 52.7396 15.6139 52.4434 15.8145C52.1471 16.015 51.999 16.3203 51.999 16.7305C51.999 17.3184 52.3363 17.6123 53.0107 17.6123C53.4938 17.6123 53.8789 17.4733 54.166 17.1953C54.4577 16.9173 54.6035 16.5482 54.6035 16.0879V15.459ZM64.1602 16.7305C64.1602 17.5143 63.8867 18.1113 63.3398 18.5215C62.7975 18.9316 61.984 19.1367 60.8994 19.1367C60.3434 19.1367 59.8695 19.098 59.4775 19.0205C59.0856 18.9476 58.7188 18.8382 58.377 18.6924V16.9697C58.7643 17.152 59.1995 17.3047 59.6826 17.4277C60.1702 17.5508 60.5986 17.6123 60.9678 17.6123C61.7243 17.6123 62.1025 17.3936 62.1025 16.9561C62.1025 16.792 62.0524 16.6598 61.9521 16.5596C61.8519 16.4548 61.6787 16.3385 61.4326 16.2109C61.1865 16.0788 60.8584 15.9261 60.4482 15.7529C59.8604 15.5068 59.4274 15.279 59.1494 15.0693C58.876 14.8597 58.6755 14.6204 58.5479 14.3516C58.4248 14.0781 58.3633 13.7432 58.3633 13.3467C58.3633 12.6676 58.6253 12.1436 59.1494 11.7744C59.6781 11.4007 60.4255 11.2139 61.3916 11.2139C62.3122 11.2139 63.2077 11.4144 64.0781 11.8154L63.4492 13.3193C63.0664 13.1553 62.7087 13.0208 62.376 12.916C62.0433 12.8112 61.7038 12.7588 61.3574 12.7588C60.7422 12.7588 60.4346 12.9251 60.4346 13.2578C60.4346 13.4447 60.5326 13.6064 60.7285 13.7432C60.929 13.8799 61.3643 14.0827 62.0342 14.3516C62.6312 14.5931 63.0687 14.8187 63.3467 15.0283C63.6247 15.238 63.8298 15.4795 63.9619 15.7529C64.0941 16.0264 64.1602 16.3522 64.1602 16.7305ZM64.6934 11.3574H66.9766L68.4189 15.6572C68.542 16.0309 68.6263 16.473 68.6719 16.9834H68.7129C68.763 16.514 68.861 16.0719 69.0068 15.6572L70.4219 11.3574H72.6572L69.4238 19.9775C69.1276 20.7751 68.7038 21.3721 68.1523 21.7686C67.6055 22.165 66.9652 22.3633 66.2314 22.3633C65.8714 22.3633 65.5182 22.3245 65.1719 22.2471V20.5928C65.4225 20.652 65.696 20.6816 65.9922 20.6816C66.3613 20.6816 66.6826 20.5677 66.9561 20.3398C67.234 20.1165 67.4505 19.777 67.6055 19.3213L67.7285 18.9453L64.6934 11.3574ZM77.7773 19H75.6582V10.7695H72.9443V9.00586H80.4912V10.7695H77.7773V19ZM86.1309 11.2139C86.4134 11.2139 86.6481 11.2344 86.835 11.2754L86.6777 13.2305C86.5091 13.1849 86.304 13.1621 86.0625 13.1621C85.3971 13.1621 84.8776 13.333 84.5039 13.6748C84.1348 14.0166 83.9502 14.4951 83.9502 15.1104V19H81.8652V11.3574H83.4443L83.752 12.6426H83.8545C84.0915 12.2142 84.4105 11.8701 84.8115 11.6104C85.2171 11.346 85.6569 11.2139 86.1309 11.2139ZM93.0762 19L92.6729 17.9609H92.6182C92.2673 18.403 91.9049 18.7106 91.5312 18.8838C91.1621 19.0524 90.679 19.1367 90.082 19.1367C89.3483 19.1367 88.7695 18.9271 88.3457 18.5078C87.9264 18.0885 87.7168 17.4915 87.7168 16.7168C87.7168 15.9056 87.9993 15.3086 88.5645 14.9258C89.1341 14.5384 89.9909 14.3242 91.1348 14.2832L92.4609 14.2422V13.9072C92.4609 13.1325 92.0645 12.7451 91.2715 12.7451C90.6608 12.7451 89.943 12.9297 89.1182 13.2988L88.4277 11.8906C89.3073 11.4303 90.2826 11.2002 91.3535 11.2002C92.3789 11.2002 93.165 11.4235 93.7119 11.8701C94.2588 12.3167 94.5322 12.9958 94.5322 13.9072V19H93.0762ZM92.4609 15.459L91.6543 15.4863C91.0482 15.5046 90.597 15.6139 90.3008 15.8145C90.0046 16.015 89.8564 16.3203 89.8564 16.7305C89.8564 17.3184 90.1937 17.6123 90.8682 17.6123C91.3512 17.6123 91.7363 17.4733 92.0234 17.1953C92.3151 16.9173 92.4609 16.5482 92.4609 16.0879V15.459ZM98.5039 19L95.5918 11.3574H97.7725L99.249 15.7119C99.4131 16.2633 99.5156 16.7852 99.5566 17.2773H99.5977C99.6204 16.8398 99.723 16.318 99.9053 15.7119L101.375 11.3574H103.556L100.644 19H98.5039ZM107.821 12.6973C107.379 12.6973 107.033 12.8385 106.782 13.1211C106.532 13.3991 106.388 13.7956 106.352 14.3105H109.277C109.268 13.7956 109.134 13.3991 108.874 13.1211C108.614 12.8385 108.263 12.6973 107.821 12.6973ZM108.115 19.1367C106.885 19.1367 105.923 18.7972 105.23 18.1182C104.538 17.4391 104.191 16.4775 104.191 15.2334C104.191 13.9528 104.51 12.9639 105.148 12.2666C105.791 11.5648 106.677 11.2139 107.808 11.2139C108.888 11.2139 109.729 11.5215 110.33 12.1367C110.932 12.752 111.232 13.6019 111.232 14.6865V15.6982H106.304C106.326 16.2907 106.502 16.7533 106.83 17.0859C107.158 17.4186 107.618 17.585 108.211 17.585C108.671 17.585 109.106 17.5371 109.517 17.4414C109.927 17.3457 110.355 17.193 110.802 16.9834V18.5967C110.437 18.779 110.048 18.9134 109.633 19C109.218 19.0911 108.712 19.1367 108.115 19.1367ZM115.013 19H112.928V8.36328H115.013V19Z" fill="#0971B3"/>
</svg>
