<svg width="16" height="17" viewBox="0 0 16 17" fill="none" xmlns="http://www.w3.org/2000/svg">
<path d="M8 0C5.54933 0 3.55556 1.99378 3.55556 4.44444C3.55556 6.89511 5.54933 8.88889 8 8.88889C10.4507 8.88889 12.4444 6.89511 12.4444 4.44444C12.4444 1.99378 10.4507 0 8 0ZM8 7.11111C6.52978 7.11111 5.33333 5.91467 5.33333 4.44444C5.33333 2.97422 6.52978 1.77778 8 1.77778C9.47022 1.77778 10.6667 2.97422 10.6667 4.44444C10.6667 5.91467 9.47022 7.11111 8 7.11111ZM16 16.8889V16C16 12.5698 13.208 9.77778 9.77778 9.77778H6.22222C2.79111 9.77778 0 12.5698 0 16V16.8889H1.77778V16C1.77778 13.5493 3.77156 11.5556 6.22222 11.5556H9.77778C12.2284 11.5556 14.2222 13.5493 14.2222 16V16.8889H16Z" fill="#15222B" fill-opacity="0.6"/>
</svg>
